<svg width="138" height="139" viewBox="0 0 138 139" fill="none" xmlns="http://www.w3.org/2000/svg">
<path d="M121.15 28.9792C110.359 18.3843 101.173 4.50243 85.9124 0.43129C85.3664 0.285064 84.8094 0.183167 84.2469 0.126586C75.3271 -0.762571 67.8621 3.12376 61.1397 8.91327C51.2516 17.5401 38.0625 18.704 26.1276 22.7102C25.6359 22.8748 25.155 23.0699 24.6878 23.2946C-2.28733 36.3722 -3.24051 71.1892 3.52209 96.6301C11.9352 130.463 43.2248 136.592 73.5561 138.96C73.8923 138.96 74.2234 139 74.5595 139H90.4977C91.6512 139.002 92.7994 138.844 93.9091 138.53C109.135 134.239 121.742 122.176 124.436 106.196C125.379 100.766 128.319 95.9558 130.958 91.1453C134.47 85.2959 135.704 78.5723 137.45 72.2682C137.673 71.4971 137.818 70.7055 137.881 69.9055C138.965 54.3802 132.583 39.5642 121.15 28.9792ZM109.431 110.217C99.6684 121.557 85.3505 127.911 68.0277 128.59H67.6213L67.2149 128.555C54.4774 127.466 40.6261 122.061 30.2163 114.069C17.4938 104.348 10.6509 91.535 10.9168 77.9928C10.8014 65.3198 15.6777 52.5469 24.6527 42.0269C33.1013 32.0878 44.3478 24.8983 56.9406 21.3864L57.066 21.3515L57.1914 21.3215C61.88 20.2246 66.678 19.6582 71.4942 19.6331C78.8932 19.5786 86.2107 21.1727 92.9108 24.2987C99.0464 27.2086 104.487 31.3896 108.869 36.5621C117.212 46.3328 121.953 59.2705 122.224 72.9975C122.505 87.0692 117.96 100.292 109.431 110.217Z" fill="url(#paint0_linear_5514_56)"/>
<defs>
<linearGradient id="paint0_linear_5514_56" x1="21.9804" y1="25.6026" x2="103.643" y2="133.019" gradientUnits="userSpaceOnUse">
<stop stop-color="#86C590"/>
<stop offset="1" stop-color="#2FB7C5"/>
</linearGradient>
</defs>
</svg>
