<svg width="55" height="56" viewBox="0 0 55 56" fill="none" xmlns="http://www.w3.org/2000/svg">
<g clip-path="url(#clip0_1516_456)">
<path d="M27.5 56C22.061 56 16.7442 54.3578 12.2218 51.2812C7.69948 48.2045 4.17473 43.8315 2.09332 38.7151C0.0119105 33.5988 -0.532675 27.9689 0.528419 22.5375C1.58951 17.106 4.20863 12.1169 8.05457 8.201C11.9005 4.28513 16.8005 1.61839 22.135 0.538006C27.4695 -0.542381 32.9988 0.0121127 38.0238 2.13137C43.0488 4.25062 47.3437 7.83945 50.3654 12.444C53.3872 17.0486 55 22.4621 55 28C54.9985 35.4256 52.1007 42.5466 46.9438 47.7973C41.7869 53.048 34.793 55.9985 27.5 56Z" fill="#AEAEAE"/>
<path d="M35.2469 42.3157C35.0743 42.3741 34.9145 42.466 34.7762 42.5864C34.4924 40.7899 34.4125 38.9661 34.5381 37.151C35.0659 36.4651 35.5559 35.7498 36.0056 35.0085C36.2714 34.5574 36.9581 31.0616 37.174 29.7592C37.3125 29.7592 37.606 30.0693 37.9382 29.8494C38.2705 29.6295 38.5418 28.6653 38.7633 28.0169C39.0862 26.8922 39.3451 25.7495 39.5386 24.5944C39.6494 23.7712 39.8986 22.6943 39.6161 22.3842C39.5436 22.2635 39.4471 22.1595 39.3329 22.0788C39.2187 21.9981 39.0893 21.9424 38.9529 21.9154C38.8164 21.8883 38.6759 21.8905 38.5404 21.9217C38.4048 21.9529 38.277 22.0125 38.1653 22.0967C38.3314 20.5799 37.9992 12.6694 37.7112 12.1619C37.7139 12.249 37.6985 12.3357 37.666 12.4163C37.6336 12.497 37.5848 12.5697 37.5229 12.6299C37.3276 11.8648 37.089 11.1117 36.8086 10.3745C36.8065 10.5781 36.7651 10.7793 36.6867 10.9666C36.4198 10.2836 36.0075 9.66927 35.4795 9.16794C34.7652 8.60411 32.9543 7.3524 32.7661 7.00846C32.7443 7.33404 32.8154 7.65909 32.971 7.94442C31.722 7.22262 30.6189 6.26596 29.7204 5.12525C29.6428 4.84333 29.4546 5.50866 29.4878 6.0443C28.934 5.86951 27.4998 4.27386 27.4998 4.27386C27.453 4.46369 27.4436 4.66106 27.4721 4.8546C27.5006 5.04815 27.5665 5.23403 27.6659 5.40153C26.8628 4.68389 26.0992 3.92155 25.3788 3.118C25.2748 3.45106 25.2334 3.80114 25.257 4.14982C24.8982 3.69518 24.5077 3.26744 24.0886 2.86992C23.7293 4.36158 23.1703 5.79587 22.4273 7.1325C22.3885 6.85622 22.1282 6.40516 22.2113 6.1176C21.8181 6.41079 20.9321 8.52517 20.849 8.73379C20.7348 8.27813 20.6699 7.81114 20.6552 7.34112C20.179 8.20942 19.5477 9.34273 19.2542 10.025C19.1677 9.5858 19.1677 9.1335 19.2542 8.69432C18.5309 9.42387 18.0242 10.3462 17.7923 11.3556C17.6387 12.1239 17.5608 12.9059 17.5597 13.6899C17.3146 13.113 17.1866 12.4916 17.1831 11.8631C16.8906 12.7349 16.7046 13.6401 16.6293 14.5582C16.4705 17.0594 16.5447 19.5702 16.8508 22.0572C16.7391 21.973 16.6114 21.9134 16.4758 21.8822C16.3402 21.851 16.1997 21.8489 16.0633 21.8759C15.9268 21.903 15.7974 21.9586 15.6832 22.0393C15.569 22.12 15.4726 22.224 15.4 22.3447C15.1176 22.6549 15.3668 23.7318 15.4775 24.555C15.67 25.7107 15.9308 26.8536 16.2583 27.9774C16.4743 28.6259 16.7456 29.59 17.0779 29.8099C17.4101 30.0298 17.7092 29.7479 17.8476 29.7197C18.0636 31.0109 18.778 34.5179 19.0438 34.969C19.4972 35.7092 19.9889 36.4244 20.5168 37.1116C20.6663 37.9629 20.3617 41.4813 19.8301 42.5469C19.6919 42.4266 19.532 42.3347 19.3594 42.2763C19.3594 42.2763 10.6431 47.0181 9.11475 48.2191C9.17012 48.4277 9.24211 48.6645 9.33625 48.9295C14.3602 53.4594 20.8389 55.9604 27.5496 55.9604C34.2603 55.9604 40.739 53.4594 45.763 48.9295C45.8571 48.6645 45.9291 48.4277 45.9845 48.2191C44.4062 47.0576 35.2469 42.3157 35.2469 42.3157Z" fill="white"/>
</g>
<defs>
<clipPath id="clip0_1516_456">
<rect width="55" height="56" fill="white"/>
</clipPath>
</defs>
</svg>
